<svg width="28" height="28" viewBox="0 0 28 28" fill="none" xmlns="http://www.w3.org/2000/svg">
<g id="Icon/Outline/location-marker">
<g id="Icon">
<path d="M20.364 18.864C19.2684 19.9596 16.9297 22.2983 15.413 23.8149C14.6319 24.596 13.3682 24.5962 12.5872 23.8151C11.0965 22.3244 8.80469 20.0326 7.63604 18.864C4.12132 15.3492 4.12132 9.65076 7.63604 6.13604C11.1508 2.62132 16.8492 2.62132 20.364 6.13604C23.8787 9.65076 23.8787 15.3492 20.364 18.864Z" stroke="#334A55" stroke-linecap="round" stroke-linejoin="round"/>
<path d="M17.375 12.5C17.375 14.364 15.864 15.875 14 15.875C12.136 15.875 10.625 14.364 10.625 12.5C10.625 10.636 12.136 9.125 14 9.125C15.864 9.125 17.375 10.636 17.375 12.5Z" stroke="#334A55" stroke-linecap="round" stroke-linejoin="round"/>
</g>
</g>
</svg>
